<svg xmlns="http://www.w3.org/2000/svg" viewBox="0 0 230.61 230.61"><defs><style>.cls-1{fill:#fff;}</style></defs><g id="Calque_2" data-name="Calque 2"><g id="Layer_2" data-name="Layer 2"><circle cx="115.31" cy="115.31" r="115.31"/><path class="cls-1" d="M164.54,168,186.1,66.42c1.71-6.91-1.31-10.83-5.48-11a8.45,8.45,0,0,0-3.45.79L50.67,105.05c-8.64,3.5-8.53,8.32-1.53,10.4l32.33,10.12,75.08-47.33c3.51-2.19,6.79-1,4.16,1.42L99.65,134.49l20.31,15h0l.12-.11,32.8,24.19a11.6,11.6,0,0,0,5.11,1.61C161.21,175.14,163.52,172.81,164.54,168Z"/></g></g></svg>